<?xml version="1.0" encoding="UTF-8" standalone="no"?><svg xmlns="http://www.w3.org/2000/svg" xmlns:xlink="http://www.w3.org/1999/xlink" contentScriptType="application/ecmascript" contentStyleType="text/css" height="286px" preserveAspectRatio="none" style="width:744px;height:286px;background:#FFFFFF;" version="1.1" viewBox="0 0 744 286" width="744px" zoomAndPan="magnify"><defs><filter height="300%" id="f1xrzcrokli8tu" width="300%" x="-1" y="-1"><feGaussianBlur result="blurOut" stdDeviation="2.0"/><feColorMatrix in="blurOut" result="blurOut2" type="matrix" values="0 0 0 0 0 0 0 0 0 0 0 0 0 0 0 0 0 0 .4 0"/><feOffset dx="4.0" dy="4.0" in="blurOut2" result="blurOut3"/><feBlend in="SourceGraphic" in2="blurOut3" mode="normal"/></filter></defs><g><!--MD5=[a96c7dd575523f7e8427f237cddbccec]
cluster Switch文を使ったCeilingFan--><polygon fill="#FFFFFF" filter="url(#f1xrzcrokli8tu)" points="16,6,217,6,224,29.6094,727,29.6094,727,279,16,279,16,6" style="stroke:#000000;stroke-width:1.5;"/><line style="stroke:#000000;stroke-width:1.5;" x1="16" x2="224" y1="29.6094" y2="29.6094"/><text fill="#000000" font-family="sans-serif" font-size="14" font-weight="bold" lengthAdjust="spacing" textLength="195" x="20" y="22.5332">Switch文を使ったCeilingFan</text><!--MD5=[ce108193fc5e1e6dd3c304f044275164]
cluster dirty--><polygon fill="#FFFFFF" filter="url(#f1xrzcrokli8tu)" points="40,50,77,50,84,73.6094,703,73.6094,703,255,40,255,40,50" style="stroke:#000000;stroke-width:1.5;"/><line style="stroke:#000000;stroke-width:1.5;" x1="40" x2="84" y1="73.6094" y2="73.6094"/><text fill="#000000" font-family="sans-serif" font-size="14" font-weight="bold" lengthAdjust="spacing" textLength="31" x="44" y="66.5332">dirty</text><!--MD5=[335f4d9be48430461c68bf6d6fdba145]
class App--><rect codeLine="4" fill="#FEFECE" filter="url(#f1xrzcrokli8tu)" height="152.8516" id="App" style="stroke:#A80036;stroke-width:1.5;" width="235" x="56.5" y="86"/><ellipse cx="158.75" cy="102" fill="#ADD1B2" rx="11" ry="11" style="stroke:#A80036;stroke-width:1.0;"/><path d="M162.4375,102.7031 Q162.1875,106.1875 161.0469,107.3438 Q160.0156,108.3594 158.6094,108.3594 Q157.2031,108.3594 156.1719,107.3438 Q154.4219,105.5781 154.4219,101.9063 Q154.4219,97.6563 156.2969,95.75 Q157.3438,94.7344 158.6719,94.7344 Q160.0781,94.7344 160.9219,95.5469 Q162.4063,97.0625 162.3281,99.9375 L160.2031,99.9375 Q160.125,97.6094 159.4844,96.9688 Q159.2031,96.6719 158.6719,96.6719 Q158.2188,96.6719 157.8594,97.0469 Q156.625,98.2656 156.625,101.7813 Q156.625,104.8281 157.6719,105.8438 Q158.0938,106.2813 158.6094,106.2813 Q159.0625,106.2813 159.5,105.8438 Q160.0625,105.2969 160.1406,102.7031 L162.4375,102.7031 Z " fill="#000000"/><text fill="#000000" font-family="sans-serif" font-size="12" lengthAdjust="spacing" textLength="22" x="179.25" y="106.9102">App</text><line style="stroke:#A80036;stroke-width:1.5;" x1="57.5" x2="290.5" y1="118" y2="118"/><rect fill="none" height="6" style="stroke:#C82930;stroke-width:1.0;" width="6" x="64.5" y="126"/><text fill="#000000" font-family="sans-serif" font-size="11" lengthAdjust="spacing" text-decoration="underline" textLength="139" x="76.5" y="133.4189">STDIN : Scanner {readOnly}</text><rect fill="none" height="6" style="stroke:#C82930;stroke-width:1.0;" width="6" x="64.5" y="139.8359"/><text fill="#000000" font-family="sans-serif" font-size="11" lengthAdjust="spacing" text-decoration="underline" textLength="203" x="76.5" y="147.2549">MSG_PRESS_ENTER : String {readOnly}</text><rect fill="none" height="6" style="stroke:#C82930;stroke-width:1.0;" width="6" x="64.5" y="153.6719"/><text fill="#000000" font-family="sans-serif" font-size="11" lengthAdjust="spacing" text-decoration="underline" textLength="159" x="76.5" y="161.0908">BREAK_LINE : String {readOnly}</text><line style="stroke:#A80036;stroke-width:1.0;" x1="57.5" x2="290.5" y1="167.5078" y2="167.5078"/><ellipse cx="67.5" cy="178.5078" fill="#84BE84" rx="3" ry="3" style="stroke:#038048;stroke-width:1.0;"/><text fill="#000000" font-family="sans-serif" font-size="11" lengthAdjust="spacing" text-decoration="underline" textLength="122" x="76.5" y="182.9268">main(String... args) : void</text><line style="stroke:#A80036;stroke-width:1.0;" x1="57.5" x2="290.5" y1="189.3438" y2="189.3438"/><rect fill="#F24D5C" height="6" style="stroke:#C82930;stroke-width:1.0;" width="6" x="64.5" y="197.3438"/><text fill="#000000" font-family="sans-serif" font-size="11" lengthAdjust="spacing" text-decoration="underline" textLength="209" x="76.5" y="204.7627">spendLife(CeilingFanPullChain chain) : void</text><rect fill="#F24D5C" height="6" style="stroke:#C82930;stroke-width:1.0;" width="6" x="64.5" y="211.1797"/><text fill="#000000" font-family="sans-serif" font-size="11" lengthAdjust="spacing" text-decoration="underline" textLength="139" x="76.5" y="218.5986">show(String message) : void</text><rect fill="#F24D5C" height="6" style="stroke:#C82930;stroke-width:1.0;" width="6" x="64.5" y="225.0156"/><text fill="#000000" font-family="sans-serif" font-size="11" lengthAdjust="spacing" text-decoration="underline" textLength="165" x="76.5" y="232.4346">recieveInputtedEnterKey() : String</text><!--MD5=[7407f35e70a4bc60225604238b3b6f01]
class CeilingFanPullChain--><rect codeLine="16" fill="#FEFECE" filter="url(#f1xrzcrokli8tu)" height="97.5078" id="CeilingFanPullChain" style="stroke:#A80036;stroke-width:1.5;" width="146" x="349" y="113.5"/><ellipse cx="364" cy="129.5" fill="#ADD1B2" rx="11" ry="11" style="stroke:#A80036;stroke-width:1.0;"/><path d="M367.6875,130.2031 Q367.4375,133.6875 366.2969,134.8438 Q365.2656,135.8594 363.8594,135.8594 Q362.4531,135.8594 361.4219,134.8438 Q359.6719,133.0781 359.6719,129.4063 Q359.6719,125.1563 361.5469,123.25 Q362.5938,122.2344 363.9219,122.2344 Q365.3281,122.2344 366.1719,123.0469 Q367.6563,124.5625 367.5781,127.4375 L365.4531,127.4375 Q365.375,125.1094 364.7344,124.4688 Q364.4531,124.1719 363.9219,124.1719 Q363.4688,124.1719 363.1094,124.5469 Q361.875,125.7656 361.875,129.2813 Q361.875,132.3281 362.9219,133.3438 Q363.3438,133.7813 363.8594,133.7813 Q364.3125,133.7813 364.75,133.3438 Q365.3125,132.7969 365.3906,130.2031 L367.6875,130.2031 Z " fill="#000000"/><text fill="#000000" font-family="sans-serif" font-size="12" lengthAdjust="spacing" textLength="114" x="378" y="134.4102">CeilingFanPullChain</text><line style="stroke:#A80036;stroke-width:1.5;" x1="350" x2="494" y1="145.5" y2="145.5"/><rect fill="none" height="6" style="stroke:#C82930;stroke-width:1.0;" width="6" x="357" y="153.5"/><text fill="#000000" font-family="sans-serif" font-size="11" lengthAdjust="spacing" textLength="100" x="369" y="160.9189">currentState : Speed</text><line style="stroke:#A80036;stroke-width:1.0;" x1="350" x2="494" y1="167.3359" y2="167.3359"/><ellipse cx="360" cy="178.3359" fill="#84BE84" rx="3" ry="3" style="stroke:#038048;stroke-width:1.0;"/><text fill="#000000" font-family="sans-serif" font-size="11" lengthAdjust="spacing" textLength="104" x="369" y="182.7549">CeilingFanPullChain()</text><line style="stroke:#A80036;stroke-width:1.0;" x1="350" x2="494" y1="189.1719" y2="189.1719"/><ellipse cx="360" cy="200.1719" fill="#84BE84" rx="3" ry="3" style="stroke:#038048;stroke-width:1.0;"/><text fill="#000000" font-family="sans-serif" font-size="11" lengthAdjust="spacing" textLength="53" x="369" y="204.5908">pull() : void</text><!--MD5=[aaa2e902e619045a6f24d394d34237d2]
class Speed--><rect codeLine="24" fill="#FEFECE" filter="url(#f1xrzcrokli8tu)" height="111.3438" id="Speed" style="stroke:#A80036;stroke-width:1.5;" width="135" x="551.5" y="107"/><ellipse cx="596.75" cy="123" fill="#EB937F" rx="11" ry="11" style="stroke:#A80036;stroke-width:1.0;"/><path d="M594.9688,121.1719 L599.4844,121.1719 L599.4844,123.125 L594.9688,123.125 L594.9688,127.4219 L600.2031,127.4219 L600.2031,129.3594 L592.75,129.3594 L592.75,115.7344 L599.875,115.7344 L599.875,117.6719 L594.9688,117.6719 L594.9688,121.1719 Z " fill="#000000"/><text fill="#000000" font-family="sans-serif" font-size="12" lengthAdjust="spacing" textLength="36" x="617.25" y="127.9102">Speed</text><line style="stroke:#A80036;stroke-width:1.5;" x1="552.5" x2="685.5" y1="139" y2="139"/><rect fill="none" height="6" style="stroke:#C82930;stroke-width:1.0;" width="6" x="559.5" y="147"/><text fill="#000000" font-family="sans-serif" font-size="11" lengthAdjust="spacing" text-decoration="underline" textLength="95" x="571.5" y="154.4189">nameJa {readOnly}</text><line style="stroke:#A80036;stroke-width:1.0;" x1="552.5" x2="685.5" y1="160.8359" y2="160.8359"/><rect fill="#F24D5C" height="6" style="stroke:#C82930;stroke-width:1.0;" width="6" x="559.5" y="168.8359"/><text fill="#000000" font-family="sans-serif" font-size="11" lengthAdjust="spacing" textLength="109" x="571.5" y="176.2549">Speed(String nameJa)</text><line style="stroke:#A80036;stroke-width:1.0;" x1="552.5" x2="685.5" y1="182.6719" y2="182.6719"/><ellipse cx="562.5" cy="193.6719" fill="#84BE84" rx="3" ry="3" style="stroke:#038048;stroke-width:1.0;"/><text fill="#000000" font-family="sans-serif" font-size="11" lengthAdjust="spacing" textLength="84" x="571.5" y="198.0908">nameJa() : String</text><ellipse cx="562.5" cy="207.5078" fill="#84BE84" rx="3" ry="3" style="stroke:#038048;stroke-width:1.0;"/><text fill="#000000" font-family="sans-serif" font-size="11" lengthAdjust="spacing" textLength="104" x="571.5" y="211.9268">showNameJa() : void</text><!--MD5=[29ed2be7fe1bb8748608cfc5df1096e1]
link App to CeilingFanPullChain--><path codeLine="35" d="M291.83,162.5 C309.5,162.5 327.33,162.5 343.9,162.5 " fill="none" id="App-to-CeilingFanPullChain" style="stroke:#A80036;stroke-width:1.0;stroke-dasharray:7.0,7.0;"/><polygon fill="#A80036" points="348.99,162.5,339.99,158.5,343.99,162.5,339.99,166.5,348.99,162.5" style="stroke:#A80036;stroke-width:1.0;"/><text fill="#000000" font-family="sans-serif" font-size="13" lengthAdjust="spacing" textLength="21" x="309.75" y="155.9951">use</text><!--MD5=[125d3338a4426aef0d51d8007139cbef]
link CeilingFanPullChain to Speed--><path codeLine="36" d="M495.08,162.5 C511.75,162.5 529.46,162.5 546.12,162.5 " fill="none" id="CeilingFanPullChain-to-Speed" style="stroke:#A80036;stroke-width:1.0;stroke-dasharray:7.0,7.0;"/><polygon fill="#A80036" points="551.26,162.5,542.26,158.5,546.26,162.5,542.26,166.5,551.26,162.5" style="stroke:#A80036;stroke-width:1.0;"/><text fill="#000000" font-family="sans-serif" font-size="13" lengthAdjust="spacing" textLength="20" x="513.25" y="155.9951">call</text><!--MD5=[e6654371526dc5218a80a1832283d579]
@startuml dirtyCeilingFan
package Switch文を使ったCeilingFan {
    package dirty {

        class App {
            - {static} STDIN : Scanner {readOnly}
            - {static} MSG_PRESS_ENTER : String {readOnly}
            - {static} BREAK_LINE : String {readOnly}
            - - -
            + {static} main(String... args) : void
            - - -
            - {static} spendLife(CeilingFanPullChain chain) : void
            - {static} show(String message) : void
            - {static} recieveInputtedEnterKey() : String
        }

        class CeilingFanPullChain {
            - currentState : Speed
            - - -
            + CeilingFanPullChain()
            - - -
            + pull() : void
        }

        enum Speed {
            - {static} nameJa {readOnly}
            - - -
            - Speed(String nameJa)
            - - -
            + nameJa() : String
            + showNameJa() : void
        }
    }
}

App .> CeilingFanPullChain :use
CeilingFanPullChain .> Speed : call
@enduml

PlantUML version 1.2022.0(Wed Jan 12 01:16:42 JST 2022)
(GPL source distribution)
Java Runtime: OpenJDK Runtime Environment
JVM: OpenJDK 64-Bit Server VM
Default Encoding: MS932
Language: ja
Country: JP
--></g></svg>