<?xml version="1.0" encoding="UTF-8" standalone="no"?><svg xmlns="http://www.w3.org/2000/svg" xmlns:xlink="http://www.w3.org/1999/xlink" contentScriptType="application/ecmascript" contentStyleType="text/css" height="861px" preserveAspectRatio="none" style="width:1138px;height:861px;background:#FFFFFF;" version="1.1" viewBox="0 0 1138 861" width="1138px" zoomAndPan="magnify"><defs><filter height="300%" id="fix8hxcgzrr36" width="300%" x="-1" y="-1"><feGaussianBlur result="blurOut" stdDeviation="2.0"/><feColorMatrix in="blurOut" result="blurOut2" type="matrix" values="0 0 0 0 0 0 0 0 0 0 0 0 0 0 0 0 0 0 .4 0"/><feOffset dx="4.0" dy="4.0" in="blurOut2" result="blurOut3"/><feBlend in="SourceGraphic" in2="blurOut3" mode="normal"/></filter></defs><g><!--MD5=[cf9003a9409efccd80dc44381ba705ec]
cluster Stateパターンを使ったCeilingFan--><polygon fill="#FFFFFF" filter="url(#fix8hxcgzrr36)" points="16,6,251,6,258,29.6094,1121,29.6094,1121,854,16,854,16,6" style="stroke:#000000;stroke-width:1.5;"/><line style="stroke:#000000;stroke-width:1.5;" x1="16" x2="258" y1="29.6094" y2="29.6094"/><text fill="#000000" font-family="sans-serif" font-size="14" font-weight="bold" lengthAdjust="spacing" textLength="229" x="20" y="22.5332">Stateパターンを使ったCeilingFan</text><!--MD5=[81a16fcc2e6ee841f43f98d30358c5e4]
cluster clean--><polygon fill="#FFFFFF" filter="url(#fix8hxcgzrr36)" points="40,50,83,50,90,73.6094,1097,73.6094,1097,830,40,830,40,50" style="stroke:#000000;stroke-width:1.5;"/><line style="stroke:#000000;stroke-width:1.5;" x1="40" x2="90" y1="73.6094" y2="73.6094"/><text fill="#000000" font-family="sans-serif" font-size="14" font-weight="bold" lengthAdjust="spacing" textLength="37" x="44" y="66.5332">clean</text><!--MD5=[75ea3bd801f35bf9c6563570d027214a]
cluster state--><polygon fill="#FFFFFF" filter="url(#fix8hxcgzrr36)" points="64,303,104,303,111,326.6094,1073,326.6094,1073,806,64,806,64,303" style="stroke:#000000;stroke-width:1.5;"/><line style="stroke:#000000;stroke-width:1.5;" x1="64" x2="111" y1="326.6094" y2="326.6094"/><text fill="#000000" font-family="sans-serif" font-size="14" font-weight="bold" lengthAdjust="spacing" textLength="34" x="68" y="319.5332">state</text><!--MD5=[87f26ccd3d64d46e86fbc416afb35b21]
cluster constant--><polygon fill="#FFFFFF" filter="url(#fix8hxcgzrr36)" points="459,619,526,619,533,642.6094,677,642.6094,677,782,459,782,459,619" style="stroke:#000000;stroke-width:1.5;"/><line style="stroke:#000000;stroke-width:1.5;" x1="459" x2="533" y1="642.6094" y2="642.6094"/><text fill="#000000" font-family="sans-serif" font-size="14" font-weight="bold" lengthAdjust="spacing" textLength="61" x="463" y="635.5332">constant</text><!--MD5=[335f4d9be48430461c68bf6d6fdba145]
class App--><rect codeLine="4" fill="#FEFECE" filter="url(#fix8hxcgzrr36)" height="152.8516" id="App" style="stroke:#A80036;stroke-width:1.5;" width="235" x="120.5" y="86"/><ellipse cx="222.75" cy="102" fill="#ADD1B2" rx="11" ry="11" style="stroke:#A80036;stroke-width:1.0;"/><path d="M226.4375,102.7031 Q226.1875,106.1875 225.0469,107.3438 Q224.0156,108.3594 222.6094,108.3594 Q221.2031,108.3594 220.1719,107.3438 Q218.4219,105.5781 218.4219,101.9063 Q218.4219,97.6563 220.2969,95.75 Q221.3438,94.7344 222.6719,94.7344 Q224.0781,94.7344 224.9219,95.5469 Q226.4063,97.0625 226.3281,99.9375 L224.2031,99.9375 Q224.125,97.6094 223.4844,96.9688 Q223.2031,96.6719 222.6719,96.6719 Q222.2188,96.6719 221.8594,97.0469 Q220.625,98.2656 220.625,101.7813 Q220.625,104.8281 221.6719,105.8438 Q222.0938,106.2813 222.6094,106.2813 Q223.0625,106.2813 223.5,105.8438 Q224.0625,105.2969 224.1406,102.7031 L226.4375,102.7031 Z " fill="#000000"/><text fill="#000000" font-family="sans-serif" font-size="12" lengthAdjust="spacing" textLength="22" x="243.25" y="106.9102">App</text><line style="stroke:#A80036;stroke-width:1.5;" x1="121.5" x2="354.5" y1="118" y2="118"/><rect fill="none" height="6" style="stroke:#C82930;stroke-width:1.0;" width="6" x="128.5" y="126"/><text fill="#000000" font-family="sans-serif" font-size="11" lengthAdjust="spacing" text-decoration="underline" textLength="139" x="140.5" y="133.4189">STDIN : Scanner {readOnly}</text><rect fill="none" height="6" style="stroke:#C82930;stroke-width:1.0;" width="6" x="128.5" y="139.8359"/><text fill="#000000" font-family="sans-serif" font-size="11" lengthAdjust="spacing" text-decoration="underline" textLength="203" x="140.5" y="147.2549">MSG_PRESS_ENTER : String {readOnly}</text><rect fill="none" height="6" style="stroke:#C82930;stroke-width:1.0;" width="6" x="128.5" y="153.6719"/><text fill="#000000" font-family="sans-serif" font-size="11" lengthAdjust="spacing" text-decoration="underline" textLength="159" x="140.5" y="161.0908">BREAK_LINE : String {readOnly}</text><line style="stroke:#A80036;stroke-width:1.0;" x1="121.5" x2="354.5" y1="167.5078" y2="167.5078"/><ellipse cx="131.5" cy="178.5078" fill="#84BE84" rx="3" ry="3" style="stroke:#038048;stroke-width:1.0;"/><text fill="#000000" font-family="sans-serif" font-size="11" lengthAdjust="spacing" text-decoration="underline" textLength="122" x="140.5" y="182.9268">main(String... args) : void</text><line style="stroke:#A80036;stroke-width:1.0;" x1="121.5" x2="354.5" y1="189.3438" y2="189.3438"/><rect fill="#F24D5C" height="6" style="stroke:#C82930;stroke-width:1.0;" width="6" x="128.5" y="197.3438"/><text fill="#000000" font-family="sans-serif" font-size="11" lengthAdjust="spacing" text-decoration="underline" textLength="209" x="140.5" y="204.7627">spendLife(CeilingFanPullChain chain) : void</text><rect fill="#F24D5C" height="6" style="stroke:#C82930;stroke-width:1.0;" width="6" x="128.5" y="211.1797"/><text fill="#000000" font-family="sans-serif" font-size="11" lengthAdjust="spacing" text-decoration="underline" textLength="139" x="140.5" y="218.5986">show(String message) : void</text><rect fill="#F24D5C" height="6" style="stroke:#C82930;stroke-width:1.0;" width="6" x="128.5" y="225.0156"/><text fill="#000000" font-family="sans-serif" font-size="11" lengthAdjust="spacing" text-decoration="underline" textLength="165" x="140.5" y="232.4346">recieveInputtedEnterKey() : String</text><!--MD5=[7407f35e70a4bc60225604238b3b6f01]
class CeilingFanPullChain--><rect codeLine="16" fill="#FEFECE" filter="url(#fix8hxcgzrr36)" height="111.3438" id="CeilingFanPullChain" style="stroke:#A80036;stroke-width:1.5;" width="217" x="413.5" y="107"/><ellipse cx="460.75" cy="123" fill="#ADD1B2" rx="11" ry="11" style="stroke:#A80036;stroke-width:1.0;"/><path d="M464.4375,123.7031 Q464.1875,127.1875 463.0469,128.3438 Q462.0156,129.3594 460.6094,129.3594 Q459.2031,129.3594 458.1719,128.3438 Q456.4219,126.5781 456.4219,122.9063 Q456.4219,118.6563 458.2969,116.75 Q459.3438,115.7344 460.6719,115.7344 Q462.0781,115.7344 462.9219,116.5469 Q464.4063,118.0625 464.3281,120.9375 L462.2031,120.9375 Q462.125,118.6094 461.4844,117.9688 Q461.2031,117.6719 460.6719,117.6719 Q460.2188,117.6719 459.8594,118.0469 Q458.625,119.2656 458.625,122.7813 Q458.625,125.8281 459.6719,126.8438 Q460.0938,127.2813 460.6094,127.2813 Q461.0625,127.2813 461.5,126.8438 Q462.0625,126.2969 462.1406,123.7031 L464.4375,123.7031 Z " fill="#000000"/><text fill="#000000" font-family="sans-serif" font-size="12" lengthAdjust="spacing" textLength="114" x="481.25" y="127.9102">CeilingFanPullChain</text><line style="stroke:#A80036;stroke-width:1.5;" x1="414.5" x2="629.5" y1="139" y2="139"/><rect fill="none" height="6" style="stroke:#C82930;stroke-width:1.0;" width="6" x="421.5" y="147"/><text fill="#000000" font-family="sans-serif" font-size="11" lengthAdjust="spacing" textLength="125" x="433.5" y="154.4189">currentState : SpeedState</text><line style="stroke:#A80036;stroke-width:1.0;" x1="414.5" x2="629.5" y1="160.8359" y2="160.8359"/><ellipse cx="424.5" cy="171.8359" fill="#84BE84" rx="3" ry="3" style="stroke:#038048;stroke-width:1.0;"/><text fill="#000000" font-family="sans-serif" font-size="11" lengthAdjust="spacing" textLength="104" x="433.5" y="176.2549">CeilingFanPullChain()</text><line style="stroke:#A80036;stroke-width:1.0;" x1="414.5" x2="629.5" y1="182.6719" y2="182.6719"/><ellipse cx="424.5" cy="193.6719" fill="#84BE84" rx="3" ry="3" style="stroke:#038048;stroke-width:1.0;"/><text fill="#000000" font-family="sans-serif" font-size="11" lengthAdjust="spacing" textLength="191" x="433.5" y="198.0908">setSpeedState(SpeedState state) : void</text><ellipse cx="424.5" cy="207.5078" fill="#84BE84" rx="3" ry="3" style="stroke:#038048;stroke-width:1.0;"/><text fill="#000000" font-family="sans-serif" font-size="11" lengthAdjust="spacing" textLength="53" x="433.5" y="211.9268">pull() : void</text><!--MD5=[d709045a184f8e3dab11c478eeb197d8]
class SpeedState--><rect codeLine="37" fill="#FEFECE" filter="url(#fix8hxcgzrr36)" height="61.8359" id="SpeedState" style="stroke:#A80036;stroke-width:1.5;" width="218" x="413" y="339"/><ellipse cx="485.75" cy="355" fill="#B4A7E5" rx="11" ry="11" style="stroke:#A80036;stroke-width:1.0;"/><path d="M486.4219,359.2188 L487.1563,359.2188 L487.1563,361.3594 L483.4688,361.3594 L483.4688,359.2188 L484.2031,359.2188 L484.2031,349.875 L483.4688,349.875 L483.4688,347.7344 L487.1563,347.7344 L487.1563,349.875 L486.4219,349.875 L486.4219,359.2188 Z " fill="#000000"/><text fill="#000000" font-family="sans-serif" font-size="12" font-style="italic" lengthAdjust="spacing" textLength="64" x="506.25" y="359.9102">SpeedState</text><line style="stroke:#A80036;stroke-width:1.5;" x1="414" x2="630" y1="371" y2="371"/><line style="stroke:#A80036;stroke-width:1.5;" x1="414" x2="630" y1="379" y2="379"/><ellipse cx="424" cy="390" fill="#84BE84" rx="3" ry="3" style="stroke:#038048;stroke-width:1.0;"/><text fill="#000000" font-family="sans-serif" font-size="11" lengthAdjust="spacing" textLength="192" x="433" y="394.4189">pull(CeilingFanPullChain wrapper) : void</text><!--MD5=[b9806f857068f75bad4375a63b663767]
class Off--><rect codeLine="41" fill="#FEFECE" filter="url(#fix8hxcgzrr36)" height="75.6719" id="Off" style="stroke:#A80036;stroke-width:1.5;" width="218" x="80" y="479"/><ellipse cx="177.25" cy="495" fill="#ADD1B2" rx="11" ry="11" style="stroke:#A80036;stroke-width:1.0;"/><path d="M180.9375,495.7031 Q180.6875,499.1875 179.5469,500.3438 Q178.5156,501.3594 177.1094,501.3594 Q175.7031,501.3594 174.6719,500.3438 Q172.9219,498.5781 172.9219,494.9063 Q172.9219,490.6563 174.7969,488.75 Q175.8438,487.7344 177.1719,487.7344 Q178.5781,487.7344 179.4219,488.5469 Q180.9063,490.0625 180.8281,492.9375 L178.7031,492.9375 Q178.625,490.6094 177.9844,489.9688 Q177.7031,489.6719 177.1719,489.6719 Q176.7188,489.6719 176.3594,490.0469 Q175.125,491.2656 175.125,494.7813 Q175.125,497.8281 176.1719,498.8438 Q176.5938,499.2813 177.1094,499.2813 Q177.5625,499.2813 178,498.8438 Q178.5625,498.2969 178.6406,495.7031 L180.9375,495.7031 Z " fill="#000000"/><text fill="#000000" font-family="sans-serif" font-size="12" lengthAdjust="spacing" textLength="15" x="197.75" y="499.9102">Off</text><line style="stroke:#A80036;stroke-width:1.5;" x1="81" x2="297" y1="511" y2="511"/><rect fill="none" height="6" style="stroke:#C82930;stroke-width:1.0;" width="6" x="88" y="519"/><text fill="#000000" font-family="sans-serif" font-size="11" lengthAdjust="spacing" text-decoration="underline" textLength="175" x="100" y="526.4189">SpeedStateType STATE {readOnly}</text><line style="stroke:#A80036;stroke-width:1.5;" x1="81" x2="297" y1="532.8359" y2="532.8359"/><ellipse cx="91" cy="543.8359" fill="#84BE84" rx="3" ry="3" style="stroke:#038048;stroke-width:1.0;"/><text fill="#000000" font-family="sans-serif" font-size="11" lengthAdjust="spacing" textLength="192" x="100" y="548.2549">pull(CeilingFanPullChain wrapper) : void</text><!--MD5=[1f527538a61505e18cfbf92b1740acba]
class Low--><rect codeLine="46" fill="#FEFECE" filter="url(#fix8hxcgzrr36)" height="75.6719" id="Low" style="stroke:#A80036;stroke-width:1.5;" width="218" x="333" y="479"/><ellipse cx="426.25" cy="495" fill="#ADD1B2" rx="11" ry="11" style="stroke:#A80036;stroke-width:1.0;"/><path d="M429.9375,495.7031 Q429.6875,499.1875 428.5469,500.3438 Q427.5156,501.3594 426.1094,501.3594 Q424.7031,501.3594 423.6719,500.3438 Q421.9219,498.5781 421.9219,494.9063 Q421.9219,490.6563 423.7969,488.75 Q424.8438,487.7344 426.1719,487.7344 Q427.5781,487.7344 428.4219,488.5469 Q429.9063,490.0625 429.8281,492.9375 L427.7031,492.9375 Q427.625,490.6094 426.9844,489.9688 Q426.7031,489.6719 426.1719,489.6719 Q425.7188,489.6719 425.3594,490.0469 Q424.125,491.2656 424.125,494.7813 Q424.125,497.8281 425.1719,498.8438 Q425.5938,499.2813 426.1094,499.2813 Q426.5625,499.2813 427,498.8438 Q427.5625,498.2969 427.6406,495.7031 L429.9375,495.7031 Z " fill="#000000"/><text fill="#000000" font-family="sans-serif" font-size="12" lengthAdjust="spacing" textLength="23" x="446.75" y="499.9102">Low</text><line style="stroke:#A80036;stroke-width:1.5;" x1="334" x2="550" y1="511" y2="511"/><rect fill="none" height="6" style="stroke:#C82930;stroke-width:1.0;" width="6" x="341" y="519"/><text fill="#000000" font-family="sans-serif" font-size="11" lengthAdjust="spacing" text-decoration="underline" textLength="175" x="353" y="526.4189">SpeedStateType STATE {readOnly}</text><line style="stroke:#A80036;stroke-width:1.5;" x1="334" x2="550" y1="532.8359" y2="532.8359"/><ellipse cx="344" cy="543.8359" fill="#84BE84" rx="3" ry="3" style="stroke:#038048;stroke-width:1.0;"/><text fill="#000000" font-family="sans-serif" font-size="11" lengthAdjust="spacing" textLength="192" x="353" y="548.2549">pull(CeilingFanPullChain wrapper) : void</text><!--MD5=[d915aad2d8be754038301ab9b3e49da5]
class Medium--><rect codeLine="51" fill="#FEFECE" filter="url(#fix8hxcgzrr36)" height="75.6719" id="Medium" style="stroke:#A80036;stroke-width:1.5;" width="218" x="586" y="479"/><ellipse cx="668.75" cy="495" fill="#ADD1B2" rx="11" ry="11" style="stroke:#A80036;stroke-width:1.0;"/><path d="M672.4375,495.7031 Q672.1875,499.1875 671.0469,500.3438 Q670.0156,501.3594 668.6094,501.3594 Q667.2031,501.3594 666.1719,500.3438 Q664.4219,498.5781 664.4219,494.9063 Q664.4219,490.6563 666.2969,488.75 Q667.3438,487.7344 668.6719,487.7344 Q670.0781,487.7344 670.9219,488.5469 Q672.4063,490.0625 672.3281,492.9375 L670.2031,492.9375 Q670.125,490.6094 669.4844,489.9688 Q669.2031,489.6719 668.6719,489.6719 Q668.2188,489.6719 667.8594,490.0469 Q666.625,491.2656 666.625,494.7813 Q666.625,497.8281 667.6719,498.8438 Q668.0938,499.2813 668.6094,499.2813 Q669.0625,499.2813 669.5,498.8438 Q670.0625,498.2969 670.1406,495.7031 L672.4375,495.7031 Z " fill="#000000"/><text fill="#000000" font-family="sans-serif" font-size="12" lengthAdjust="spacing" textLength="44" x="689.25" y="499.9102">Medium</text><line style="stroke:#A80036;stroke-width:1.5;" x1="587" x2="803" y1="511" y2="511"/><rect fill="none" height="6" style="stroke:#C82930;stroke-width:1.0;" width="6" x="594" y="519"/><text fill="#000000" font-family="sans-serif" font-size="11" lengthAdjust="spacing" text-decoration="underline" textLength="175" x="606" y="526.4189">SpeedStateType STATE {readOnly}</text><line style="stroke:#A80036;stroke-width:1.5;" x1="587" x2="803" y1="532.8359" y2="532.8359"/><ellipse cx="597" cy="543.8359" fill="#84BE84" rx="3" ry="3" style="stroke:#038048;stroke-width:1.0;"/><text fill="#000000" font-family="sans-serif" font-size="11" lengthAdjust="spacing" textLength="192" x="606" y="548.2549">pull(CeilingFanPullChain wrapper) : void</text><!--MD5=[87dec8bc37044ee287e36547435f1f2f]
class High--><rect codeLine="56" fill="#FEFECE" filter="url(#fix8hxcgzrr36)" height="75.6719" id="High" style="stroke:#A80036;stroke-width:1.5;" width="218" x="839" y="479"/><ellipse cx="930.75" cy="495" fill="#ADD1B2" rx="11" ry="11" style="stroke:#A80036;stroke-width:1.0;"/><path d="M934.4375,495.7031 Q934.1875,499.1875 933.0469,500.3438 Q932.0156,501.3594 930.6094,501.3594 Q929.2031,501.3594 928.1719,500.3438 Q926.4219,498.5781 926.4219,494.9063 Q926.4219,490.6563 928.2969,488.75 Q929.3438,487.7344 930.6719,487.7344 Q932.0781,487.7344 932.9219,488.5469 Q934.4063,490.0625 934.3281,492.9375 L932.2031,492.9375 Q932.125,490.6094 931.4844,489.9688 Q931.2031,489.6719 930.6719,489.6719 Q930.2188,489.6719 929.8594,490.0469 Q928.625,491.2656 928.625,494.7813 Q928.625,497.8281 929.6719,498.8438 Q930.0938,499.2813 930.6094,499.2813 Q931.0625,499.2813 931.5,498.8438 Q932.0625,498.2969 932.1406,495.7031 L934.4375,495.7031 Z " fill="#000000"/><text fill="#000000" font-family="sans-serif" font-size="12" lengthAdjust="spacing" textLength="26" x="951.25" y="499.9102">High</text><line style="stroke:#A80036;stroke-width:1.5;" x1="840" x2="1056" y1="511" y2="511"/><rect fill="none" height="6" style="stroke:#C82930;stroke-width:1.0;" width="6" x="847" y="519"/><text fill="#000000" font-family="sans-serif" font-size="11" lengthAdjust="spacing" text-decoration="underline" textLength="175" x="859" y="526.4189">SpeedStateType STATE {readOnly}</text><line style="stroke:#A80036;stroke-width:1.5;" x1="840" x2="1056" y1="532.8359" y2="532.8359"/><ellipse cx="850" cy="543.8359" fill="#84BE84" rx="3" ry="3" style="stroke:#038048;stroke-width:1.0;"/><text fill="#000000" font-family="sans-serif" font-size="11" lengthAdjust="spacing" textLength="192" x="859" y="548.2549">pull(CeilingFanPullChain wrapper) : void</text><!--MD5=[1dfff70f2bb31da5000a51398cccc090]
class SpeedStateType--><rect codeLine="27" fill="#FEFECE" filter="url(#fix8hxcgzrr36)" height="111.3438" id="SpeedStateType" style="stroke:#A80036;stroke-width:1.5;" width="185" x="475.5" y="655"/><ellipse cx="518.4" cy="671" fill="#EB937F" rx="11" ry="11" style="stroke:#A80036;stroke-width:1.0;"/><path d="M516.6188,669.1719 L521.1344,669.1719 L521.1344,671.125 L516.6188,671.125 L516.6188,675.4219 L521.8531,675.4219 L521.8531,677.3594 L514.4,677.3594 L514.4,663.7344 L521.525,663.7344 L521.525,665.6719 L516.6188,665.6719 L516.6188,669.1719 Z " fill="#000000"/><text fill="#000000" font-family="sans-serif" font-size="12" lengthAdjust="spacing" textLength="91" x="538.6" y="675.9102">SpeedStateType</text><line style="stroke:#A80036;stroke-width:1.5;" x1="476.5" x2="659.5" y1="687" y2="687"/><rect fill="none" height="6" style="stroke:#C82930;stroke-width:1.0;" width="6" x="483.5" y="695"/><text fill="#000000" font-family="sans-serif" font-size="11" lengthAdjust="spacing" text-decoration="underline" textLength="95" x="495.5" y="702.4189">nameJa {readOnly}</text><line style="stroke:#A80036;stroke-width:1.0;" x1="476.5" x2="659.5" y1="708.8359" y2="708.8359"/><rect fill="#F24D5C" height="6" style="stroke:#C82930;stroke-width:1.0;" width="6" x="483.5" y="716.8359"/><text fill="#000000" font-family="sans-serif" font-size="11" lengthAdjust="spacing" textLength="159" x="495.5" y="724.2549">SpeedStateType(String nameJa)</text><line style="stroke:#A80036;stroke-width:1.0;" x1="476.5" x2="659.5" y1="730.6719" y2="730.6719"/><ellipse cx="486.5" cy="741.6719" fill="#84BE84" rx="3" ry="3" style="stroke:#038048;stroke-width:1.0;"/><text fill="#000000" font-family="sans-serif" font-size="11" lengthAdjust="spacing" textLength="84" x="495.5" y="746.0908">nameJa() : String</text><ellipse cx="486.5" cy="755.5078" fill="#84BE84" rx="3" ry="3" style="stroke:#038048;stroke-width:1.0;"/><text fill="#000000" font-family="sans-serif" font-size="11" lengthAdjust="spacing" textLength="104" x="495.5" y="759.9268">showNameJa() : void</text><!--MD5=[29ed2be7fe1bb8748608cfc5df1096e1]
link App to CeilingFanPullChain--><path codeLine="64" d="M355.56,162.5 C372.85,162.5 390.63,162.5 407.85,162.5 " fill="none" id="App-to-CeilingFanPullChain" style="stroke:#A80036;stroke-width:1.0;stroke-dasharray:7.0,7.0;"/><polygon fill="#A80036" points="413.17,162.5,404.17,158.5,408.17,162.5,404.17,166.5,413.17,162.5" style="stroke:#A80036;stroke-width:1.0;"/><text fill="#000000" font-family="sans-serif" font-size="13" lengthAdjust="spacing" textLength="21" x="374" y="155.9951">use</text><!--MD5=[6aa5ad012b4dd1053183849f97071aad]
link CeilingFanPullChain to SpeedState--><path codeLine="65" d="M522,218.03 C522,254.56 522,301.61 522,333.4 " fill="none" id="CeilingFanPullChain-to-SpeedState" style="stroke:#A80036;stroke-width:1.0;stroke-dasharray:7.0,7.0;"/><polygon fill="#A80036" points="522,338.76,526,329.76,522,333.76,518,329.76,522,338.76" style="stroke:#A80036;stroke-width:1.0;"/><text fill="#000000" font-family="sans-serif" font-size="13" lengthAdjust="spacing" textLength="49" x="523" y="283.4951">delegate</text><!--MD5=[cbc7ad04ed6a483da56047d0a652d016]
reverse link SpeedState to Off--><path codeLine="67" d="M434.66,409.03 C385.11,430.61 323.37,457.49 274.18,478.91 " fill="none" id="SpeedState-backto-Off" style="stroke:#A80036;stroke-width:1.0;"/><polygon fill="none" points="431.87,402.61,453,401.04,437.46,415.45,431.87,402.61" style="stroke:#A80036;stroke-width:1.0;"/><text fill="#000000" font-family="sans-serif" font-size="13" lengthAdjust="spacing" textLength="67" x="376" y="445.4951">implements</text><!--MD5=[c817c6fc160c52c58bb82c04366d9de6]
reverse link SpeedState to Low--><path codeLine="68" d="M495.68,418.71 C484.91,438.23 472.63,460.49 462.54,478.78 " fill="none" id="SpeedState-backto-Low" style="stroke:#A80036;stroke-width:1.0;"/><polygon fill="none" points="489.63,415.17,505.42,401.04,501.89,421.94,489.63,415.17" style="stroke:#A80036;stroke-width:1.0;"/><text fill="#000000" font-family="sans-serif" font-size="13" lengthAdjust="spacing" textLength="67" x="487" y="445.4951">implements</text><!--MD5=[45f5b37a5601b638ea4f997bee9ada8c]
reverse link SpeedState to Medium--><path codeLine="69" d="M573.23,413.94 C597.81,434.54 626.97,458.98 650.59,478.78 " fill="none" id="SpeedState-backto-Medium" style="stroke:#A80036;stroke-width:1.0;"/><polygon fill="none" points="568.68,419.26,557.85,401.04,577.67,408.53,568.68,419.26" style="stroke:#A80036;stroke-width:1.0;"/><text fill="#000000" font-family="sans-serif" font-size="13" lengthAdjust="spacing" textLength="67" x="614" y="445.4951">implements</text><!--MD5=[cf6edcf7db02a73c888818628ab75b75]
reverse link SpeedState to High--><path codeLine="70" d="M629.57,407.61 C693.63,429.42 774.72,457.02 839.03,478.91 " fill="none" id="SpeedState-backto-High" style="stroke:#A80036;stroke-width:1.0;"/><polygon fill="none" points="626.95,414.12,610.27,401.04,631.46,400.86,626.95,414.12" style="stroke:#A80036;stroke-width:1.0;"/><text fill="#000000" font-family="sans-serif" font-size="13" lengthAdjust="spacing" textLength="67" x="748" y="445.4951">implements</text><!--MD5=[a69ff6ae91a9b1f16a90f30bc8b8a6c2]
link Off to SpeedStateType--><path codeLine="72" d="M262.52,555.15 C321.81,585.1 405.69,627.49 470.56,660.27 " fill="none" id="Off-to-SpeedStateType" style="stroke:#A80036;stroke-width:1.0;stroke-dasharray:7.0,7.0;"/><polygon fill="#A80036" points="475.2,662.61,468.9681,654.9835,470.7365,660.3568,465.3631,662.1251,475.2,662.61" style="stroke:#A80036;stroke-width:1.0;"/><text fill="#000000" font-family="sans-serif" font-size="13" lengthAdjust="spacing" textLength="49" x="356" y="599.4951">delegate</text><!--MD5=[9d10aba71c507efb47eef2c49b5b6c24]
link Low to SpeedStateType--><path codeLine="73" d="M466.59,555.38 C484.34,582.35 508.66,619.32 529.04,650.29 " fill="none" id="Low-to-SpeedStateType" style="stroke:#A80036;stroke-width:1.0;stroke-dasharray:7.0,7.0;"/><polygon fill="#A80036" points="532.02,654.81,530.3944,645.0962,529.263,650.6388,523.7204,649.5074,532.02,654.81" style="stroke:#A80036;stroke-width:1.0;"/><text fill="#000000" font-family="sans-serif" font-size="13" lengthAdjust="spacing" textLength="49" x="498" y="599.4951">delegate</text><!--MD5=[6f12b9c372f141da39774c0750f0c603]
link Medium to SpeedStateType--><path codeLine="74" d="M670.21,555.38 C652.32,582.35 627.81,619.32 607.27,650.29 " fill="none" id="Medium-to-SpeedStateType" style="stroke:#A80036;stroke-width:1.0;stroke-dasharray:7.0,7.0;"/><polygon fill="#A80036" points="604.27,654.81,612.5696,649.5074,607.027,650.6388,605.8956,645.0962,604.27,654.81" style="stroke:#A80036;stroke-width:1.0;"/><text fill="#000000" font-family="sans-serif" font-size="13" lengthAdjust="spacing" textLength="49" x="651" y="599.4951">delegate</text><!--MD5=[27311ea5d7a6ca4f31330d17b61a1d6f]
link High to SpeedStateType--><path codeLine="75" d="M874.28,555.15 C814.74,585.16 730.44,627.64 665.35,660.44 " fill="none" id="High-to-SpeedStateType" style="stroke:#A80036;stroke-width:1.0;stroke-dasharray:7.0,7.0;"/><polygon fill="#A80036" points="660.69,662.79,670.5269,662.3051,665.1535,660.5368,666.9219,655.1635,660.69,662.79" style="stroke:#A80036;stroke-width:1.0;"/><text fill="#000000" font-family="sans-serif" font-size="13" lengthAdjust="spacing" textLength="49" x="815" y="599.4951">delegate</text><!--MD5=[aa4200b2ad341262fe08d394ffe8eae9]
@startuml cleanCeilingFan
package Stateパターンを使ったCeilingFan {
    package clean {

        class App {
            - {static} STDIN : Scanner {readOnly}
            - {static} MSG_PRESS_ENTER : String {readOnly}
            - {static} BREAK_LINE : String {readOnly}
            - - -
            + {static} main(String... args) : void
            - - -
            - {static} spendLife(CeilingFanPullChain chain) : void
            - {static} show(String message) : void
            - {static} recieveInputtedEnterKey() : String
        }

        class CeilingFanPullChain {
            - currentState : SpeedState
            - - -
            + CeilingFanPullChain()
            - - -
            + setSpeedState(SpeedState state) : void
            + pull() : void
        }

        package state {
            package constant {
                enum SpeedStateType {
                    - {static} nameJa {readOnly}
                    - - -
                    - SpeedStateType(String nameJa)
                    - - -
                    + nameJa() : String
                    + showNameJa() : void
                }
            }

            interface SpeedState {
                + pull(CeilingFanPullChain wrapper) : void
            }

            class Off {
                - {static} SpeedStateType STATE {readOnly}
                + pull(CeilingFanPullChain wrapper) : void
            }

            class Low {
                - {static} SpeedStateType STATE {readOnly}
                + pull(CeilingFanPullChain wrapper) : void
            }

            class Medium {
                - {static} SpeedStateType STATE {readOnly}
                + pull(CeilingFanPullChain wrapper) : void
            }

            class High {
                - {static} SpeedStateType STATE {readOnly}
                + pull(CeilingFanPullChain wrapper) : void
            }
        }
    }
}

App .> CeilingFanPullChain :use
CeilingFanPullChain ..> SpeedState : delegate

SpeedState <|- - Off :implements
SpeedState <|- - Low :implements
SpeedState <|- - Medium :implements
SpeedState <|- - High :implements

Off ..> SpeedStateType :delegate
Low ..> SpeedStateType :delegate
Medium ..> SpeedStateType :delegate
High ..> SpeedStateType :delegate
@enduml

PlantUML version 1.2022.0(Wed Jan 12 01:16:42 JST 2022)
(GPL source distribution)
Java Runtime: OpenJDK Runtime Environment
JVM: OpenJDK 64-Bit Server VM
Default Encoding: MS932
Language: ja
Country: JP
--></g></svg>